<?xml version="1.0" encoding="UTF-8" standalone="no"?>
<!DOCTYPE svg PUBLIC "-//W3C//DTD SVG 20010904//EN"
              "http://www.w3.org/TR/2001/REC-SVG-20010904/DTD/svg10.dtd">

<svg xmlns="http://www.w3.org/2000/svg"
     width="3.33333in" height="0.283333in"
     viewBox="0 0 1000 85">
  <path id="Selection"
        fill="white" stroke="none" stroke-width="1"
        d="M 495.00,10.00
           C 498.47,8.27 498.81,8.22 502.00,5.84
             503.68,4.59 505.65,2.62 507.89,2.63
             510.59,2.63 512.69,5.72 509.55,9.96
             501.16,21.31 488.18,13.15 489.17,26.00
             490.16,38.77 496.25,57.87 479.00,63.20
             476.27,64.04 472.86,64.06 470.00,63.98
             465.42,63.86 460.43,62.39 457.32,58.79
             455.41,56.59 454.53,52.72 458.15,51.74
             460.89,51.00 464.54,54.01 467.00,55.16
             471.76,57.40 476.04,56.57 479.77,52.78
             485.81,46.66 481.91,35.49 481.17,28.00
             480.87,25.03 481.51,20.91 478.69,19.02
             476.84,17.79 461.24,16.56 458.00,16.32
             453.06,15.95 446.75,17.58 443.23,21.21
             439.45,25.10 439.22,30.21 444.06,33.39
             453.39,39.53 455.44,21.19 461.70,23.66
             465.19,25.03 463.43,30.60 462.28,33.00
             459.54,38.72 453.39,42.66 447.00,42.66
             433.30,42.65 428.21,26.49 435.43,17.02
             442.14,8.20 451.17,8.95 461.00,9.00
             461.00,9.00 481.00,10.52 481.00,10.52
             484.85,9.94 487.06,6.44 489.96,6.05
             492.79,5.67 493.82,8.00 495.00,10.00 Z
           M 527.00,60.00
           C 534.21,60.95 538.98,61.93 545.99,58.65
             556.17,53.89 559.63,42.00 552.61,33.00
             543.05,20.76 528.56,20.58 515.00,24.89
             509.43,26.66 499.88,31.77 501.47,38.96
             502.94,45.55 514.11,45.16 510.92,50.70
             509.06,53.93 503.70,52.73 501.00,51.43
             495.13,48.59 492.22,42.35 492.79,36.00
             493.71,25.62 503.11,20.35 512.00,17.36
             525.67,12.75 547.35,13.55 557.53,25.09
             565.47,34.08 566.91,50.53 558.62,59.83
             553.38,65.70 544.72,68.65 537.00,68.96
             537.00,68.96 524.00,68.42 524.00,68.42
             521.54,69.15 506.49,80.59 498.65,72.43
             494.10,67.70 496.64,61.01 502.02,58.31
             505.82,56.40 515.43,57.00 520.00,57.00
             520.00,49.98 519.16,34.93 521.61,29.00
             522.86,25.98 526.68,21.09 530.40,24.03
             533.51,26.49 529.62,31.35 528.72,34.00
             528.72,34.00 527.00,60.00 527.00,60.00 Z
           M 0.00,38.00
           C 0.00,38.00 317.00,38.00 317.00,38.00
             317.00,38.00 384.00,38.00 384.00,38.00
             386.38,38.00 389.54,38.23 391.63,36.98
             394.24,35.42 395.78,31.01 402.00,30.23
             408.82,29.36 414.67,35.21 413.62,42.00
             412.02,52.34 395.91,55.65 393.00,42.00
             393.00,42.00 0.00,42.00 0.00,42.00
             0.00,42.00 0.00,38.00 0.00,38.00 Z
           M 1000.00,43.00
           C 1000.00,43.00 683.00,43.00 683.00,43.00
             683.00,43.00 616.00,43.00 616.00,43.00
             613.62,43.00 610.46,42.77 608.37,44.02
             605.76,45.58 604.22,49.99 598.00,50.77
             591.18,51.64 585.33,45.79 586.38,39.00
             587.98,28.66 604.09,25.35 607.00,39.00
             607.00,39.00 1000.00,39.00 1000.00,39.00
             1000.00,39.00 1000.00,43.00 1000.00,43.00 Z
           M 514.00,64.00
           C 514.00,64.00 504.00,66.00 504.00,66.00
             508.10,68.17 510.77,67.01 514.00,64.00 Z" />
</svg>
